<?xml version="1.0" standalone="no"?>
<!DOCTYPE svg PUBLIC "-//W3C//DTD SVG 20010904//EN"
 "http://www.w3.org/TR/2001/REC-SVG-20010904/DTD/svg10.dtd">
<svg version="1.0" xmlns="http://www.w3.org/2000/svg"
 width="512.000000pt" height="512.000000pt" viewBox="0 0 512.000000 512.000000"
 preserveAspectRatio="xMidYMid meet">

<g transform="translate(0.000000,512.000000) scale(0.100000,-0.100000)"
fill="#000000" stroke="none">
<path d="M2932 5104 c-190 -51 -325 -211 -348 -414 -20 -176 93 -374 260 -455
100 -49 191 -62 288 -42 204 41 345 185 380 385 56 326 -259 613 -580 526z"/>
<path d="M2248 4366 c-26 -8 -71 -27 -100 -44 -39 -21 -155 -56 -431 -126
-208 -54 -389 -101 -402 -106 -36 -14 -91 -67 -109 -105 -10 -20 -17 -57 -17
-83 -1 -37 187 -1027 207 -1095 3 -9 21 -37 39 -61 l33 -44 -26 -79 c-22 -65
-26 -97 -26 -193 l-1 -115 128 -479 127 -479 -136 -516 c-93 -352 -136 -533
-137 -571 -1 -146 124 -270 273 -270 106 0 221 87 253 190 52 171 297 1131
297 1167 0 32 -176 734 -205 821 -2 6 -3 12 -1 12 2 0 126 -175 274 -388 l270
-388 -165 -540 c-184 -600 -189 -625 -144 -716 43 -89 149 -158 241 -158 103
0 210 68 248 157 30 70 381 1230 388 1283 11 82 -16 132 -249 466 -119 171
-217 317 -217 324 0 7 39 125 86 262 48 137 85 250 83 252 -2 2 -40 27 -84 56
-326 217 -321 210 -318 425 1 83 5 224 9 315 l7 165 57 -270 c71 -341 65 -319
100 -358 47 -55 712 -500 766 -514 148 -38 290 99 254 247 -6 26 -23 63 -36
82 -14 19 -152 119 -327 239 l-302 206 -47 219 c-26 120 -46 222 -45 226 1 4
38 -69 81 -161 73 -155 107 -205 126 -184 20 23 102 285 107 343 6 76 -15 172
-52 236 l-24 42 -84 7 c-162 13 -287 75 -401 197 -52 56 -85 82 -117 94 -60
22 -192 27 -251 10z m-469 -770 c-35 -102 -66 -180 -70 -173 -12 22 -63 306
-57 313 8 7 182 52 187 48 2 -2 -25 -87 -60 -188z"/>
<path d="M3757 2711 c-2 -21 -17 -66 -32 -99 -26 -59 -27 -60 -8 -88 15 -24
19 -56 23 -232 l5 -204 28 -24 c64 -55 148 -13 162 80 4 26 6 123 3 215 -4
162 -5 169 -35 234 -28 59 -110 157 -133 157 -4 0 -10 -17 -13 -39z"/>
<path d="M3242 1264 l3 -1196 33 -29 c44 -40 93 -40 133 0 l29 29 0 1176 0
1176 -45 0 c-25 0 -68 9 -97 20 -29 11 -54 20 -56 20 -1 0 -1 -538 0 -1196z"/>
</g>
</svg>
